<svg width="32" height="32" viewBox="0 0 32 32" fill="none" xmlns="http://www.w3.org/2000/svg">
<path d="M14.6161 3.1993C15.0391 3.15249 15.4261 2.93958 15.6921 2.60741C15.9581 2.27523 16.0812 1.851 16.0344 1.42804C15.9876 1.00507 15.7747 0.61803 15.4425 0.352048C15.1104 0.0860658 14.6861 -0.0370656 14.2632 0.00974104C6.23793 0.896978 0 7.69645 0 15.9559C0 24.8171 7.18293 32 16.0441 32C24.3003 32 31.0982 25.7637 31.9903 17.7432C32.0371 17.3203 31.9139 16.896 31.6479 16.5639C31.382 16.2317 30.9949 16.0188 30.572 15.972C30.149 15.9252 29.7248 16.0483 29.3926 16.3143C29.0604 16.5803 28.8475 16.9673 28.8007 17.3903C28.4312 20.6474 26.8296 23.6397 24.3244 25.7538C21.8192 27.8678 18.6002 28.9434 15.3273 28.76C12.0545 28.5766 8.97577 27.148 6.72248 24.7673C4.46919 22.3865 3.21205 19.2339 3.20881 15.9559C3.2089 12.799 4.37231 9.75276 6.47669 7.39947C8.58106 5.04618 11.4788 3.55086 14.6161 3.1993Z" fill="#1f6aed"/>
<path d="M20.4834 0.537606C20.2805 0.480719 20.0684 0.464352 19.8592 0.489441C19.65 0.51453 19.4477 0.580582 19.264 0.683828C18.8931 0.892341 18.6201 1.23969 18.5052 1.64946C18.3903 2.05923 18.4429 2.49786 18.6514 2.86885C18.8599 3.23984 19.2073 3.5128 19.6171 3.62769C20.0775 3.75765 20.53 3.91328 20.968 4.09297C21.362 4.25403 21.8039 4.25196 22.1964 4.08723C22.5889 3.92249 22.8999 3.60858 23.0609 3.21456C23.222 2.82053 23.2199 2.37866 23.0552 1.98616C22.8904 1.59366 22.5765 1.28267 22.1825 1.12161C21.6277 0.89532 21.0604 0.700871 20.4834 0.539211V0.537606Z" fill="#1f6aed"/>
<path d="M24.6276 4.23111C24.9152 3.91796 25.3153 3.73176 25.7401 3.71341C26.1649 3.69506 26.5796 3.84606 26.8931 4.13324C27.2332 4.4445 27.5589 4.77019 27.8702 5.10872C28.1578 5.42232 28.3091 5.83735 28.2907 6.2625C28.2724 6.68765 28.0859 7.0881 27.7723 7.37575C27.4587 7.66339 27.0437 7.81468 26.6185 7.79633C26.1934 7.77797 25.7929 7.59148 25.5053 7.27788C25.2567 7.00683 24.9966 6.74667 24.7255 6.49814C24.5701 6.35582 24.4443 6.18429 24.3552 5.99334C24.266 5.80238 24.2154 5.59575 24.2062 5.38523C24.197 5.17471 24.2293 4.96443 24.3013 4.76641C24.3734 4.56838 24.4837 4.38649 24.626 4.23111H24.6276Z" fill="#1f6aed"/>
<path d="M14.4397 6.32959C14.8652 6.32959 15.2733 6.49863 15.5742 6.79951C15.875 7.10039 16.0441 7.50848 16.0441 7.934V15.956H20.8573C21.2828 15.956 21.6909 16.1251 21.9918 16.4259C22.2927 16.7268 22.4617 17.1349 22.4617 17.5604C22.4617 17.9859 22.2927 18.394 21.9918 18.6949C21.6909 18.9958 21.2828 19.1648 20.8573 19.1648H14.4397C14.0142 19.1648 13.6061 18.9958 13.3052 18.6949C13.0043 18.394 12.8353 17.9859 12.8353 17.5604V7.934C12.8353 7.50848 13.0043 7.10039 13.3052 6.79951C13.6061 6.49863 14.0142 6.32959 14.4397 6.32959Z" fill="#1f6aed"/>
<path d="M28.7831 8.9333C29.1769 8.77228 29.6185 8.77428 30.0109 8.93886C30.4032 9.10344 30.7141 9.41712 30.8752 9.81091C31.1027 10.3678 31.2982 10.9372 31.4608 11.5164C31.5241 11.7211 31.5457 11.9364 31.5245 12.1496C31.5032 12.3628 31.4394 12.5695 31.337 12.7577C31.2345 12.9458 31.0954 13.1116 30.9278 13.2451C30.7602 13.3786 30.5676 13.4772 30.3613 13.535C30.155 13.5929 29.9393 13.6089 29.7267 13.582C29.5141 13.5551 29.3091 13.4859 29.1237 13.3785C28.9383 13.2711 28.7763 13.1277 28.6473 12.9567C28.5182 12.7856 28.4247 12.5905 28.3723 12.3828C28.2425 11.9219 28.0866 11.4687 27.9055 11.0254C27.7443 10.6318 27.7461 10.1903 27.9104 9.79804C28.0746 9.40573 28.388 9.09469 28.7815 8.9333H28.7831Z" fill="#1f6aed"/>
</svg>
