<svg width="32" height="32" viewBox="0 0 32 32" fill="none" xmlns="http://www.w3.org/2000/svg">
<path fill-rule="evenodd" clip-rule="evenodd" d="M32 3.32374C32 0.775952 29.2066 -0.822429 26.9622 0.442334L18.082 5.44329H8.4273C6.33951 5.44123 4.32543 6.20395 2.77603 7.58339C1.22663 8.96283 0.252462 10.8606 0.0426419 12.9082C-0.167178 14.9559 0.402318 17.0073 1.64057 18.6643C2.87883 20.3214 4.6975 21.4657 6.74354 21.8753V27.8505C6.74354 28.951 7.18703 30.0065 7.97644 30.7846C8.76586 31.5628 9.83654 32 10.9529 32C12.0694 32 13.14 31.5628 13.9294 30.7846C14.7189 30.0065 15.1624 28.951 15.1624 27.8505V22.0412H18.082L26.9622 27.0422C29.2066 28.307 32 26.7102 32 24.1608V3.32374Z" fill="#1f6aed"/>
</svg>
