<svg width="19" height="13" viewBox="0 0 19 13" fill="none" xmlns="http://www.w3.org/2000/svg">
<path d="M6.45703 1.17828C6.45703 0.672886 6.90475 0.263184 7.45703 0.263184H11.4382C11.9905 0.263184 12.4382 0.672886 12.4382 1.17828V4.36246C12.4382 4.86786 11.9905 5.27756 11.4382 5.27756H7.45703C6.90475 5.27756 6.45703 4.86786 6.45703 4.36246V1.17828Z" fill="white"/>
<path d="M5.16553 7.13288C5.16553 6.62749 5.61324 6.21779 6.16553 6.21779H12.3896C12.9419 6.21779 13.3896 6.62749 13.3896 7.13288V11.5707C13.3896 12.0761 12.9419 12.4858 12.3896 12.4858H6.16553C5.61324 12.4858 5.16553 12.0761 5.16553 11.5707V7.13288Z" fill="white"/>
<path d="M14.2051 7.13288C14.2051 6.62749 14.6528 6.21779 15.2051 6.21779H17.3171C17.8694 6.21779 18.3171 6.62749 18.3171 7.13288V11.5707C18.3171 12.0761 17.8694 12.4858 17.3171 12.4858H15.2051C14.6528 12.4858 14.2051 12.0761 14.2051 11.5707V7.13288Z" fill="white"/>
<path d="M0 7.13288C0 6.62749 0.447715 6.21779 1 6.21779H3.112C3.66428 6.21779 4.112 6.62749 4.112 7.13288V11.5707C4.112 12.0761 3.66428 12.4858 3.112 12.4858H1C0.447715 12.4858 0 12.0761 0 11.5707V7.13288Z" fill="white"/>
</svg>
