<svg width="33" height="33" viewBox="0 0 33 33" fill="none" xmlns="http://www.w3.org/2000/svg">
<path d="M21.7471 14.751C22.0771 14.025 22.2751 13.233 22.2751 12.375C22.2751 9.1905 19.6846 6.6 16.5001 6.6C15.6421 6.6 14.8501 6.798 14.1241 7.128L21.7471 14.751Z" fill="#517BAD"/>
<path d="M16.5 0C7.392 0 0 7.392 0 16.5C0 25.608 7.392 33 16.5 33C25.608 33 33 25.608 33 16.5C33 7.392 25.608 0 16.5 0ZM16.5 21.45C12.672 21.45 9.1575 22.77 6.369 24.948C4.38392 22.5808 3.2972 19.5894 3.3 16.5C3.3 13.4475 4.3395 10.6425 6.0885 8.415L10.8075 13.134C10.9713 14.385 11.5438 15.5469 12.436 16.439C13.3281 17.3312 14.49 17.9037 15.741 18.0675L19.371 21.6975C18.4305 21.5325 17.4735 21.45 16.5 21.45ZM26.9115 24.585L8.415 6.0885C10.7198 4.27642 13.5681 3.29404 16.5 3.3C23.793 3.3 29.7 9.207 29.7 16.5C29.7 19.5525 28.6605 22.341 26.9115 24.585Z" fill="#517BAD"/>
</svg>
