<svg width="21" height="21" viewBox="0 0 21 21" fill="none" xmlns="http://www.w3.org/2000/svg">
<path d="M7 21H2.33333C1.05 21 0 19.95 0 18.6667V2.33333C0 1.05 1.05 0 2.33333 0H7C8.28333 0 9.33333 1.05 9.33333 2.33333V18.6667C9.33333 19.95 8.28333 21 7 21ZM14 21H18.6667C19.95 21 21 19.95 21 18.6667V12.8333C21 11.55 19.95 10.5 18.6667 10.5H14C12.7167 10.5 11.6667 11.55 11.6667 12.8333V18.6667C11.6667 19.95 12.7167 21 14 21ZM21 5.83333V2.33333C21 1.05 19.95 0 18.6667 0H14C12.7167 0 11.6667 1.05 11.6667 2.33333V5.83333C11.6667 7.11667 12.7167 8.16667 14 8.16667H18.6667C19.95 8.16667 21 7.11667 21 5.83333Z" fill="#517BAD"/>
</svg>
