<svg width="5" height="16" viewBox="0 0 5 16" fill="none" xmlns="http://www.w3.org/2000/svg">
<path d="M4.72906 0L4.23645 10.4272H0.665025L0.172414 0H4.72906ZM2.51232 16C1.7734 16 1.16585 15.8113 0.689655 15.434C0.229885 15.0422 0 14.5633 0 13.9973C0 13.4168 0.229885 12.9306 0.689655 12.5388C1.16585 12.1469 1.7734 11.951 2.51232 11.951C3.23481 11.951 3.82594 12.1469 4.28572 12.5388C4.76191 12.9306 5 13.4168 5 13.9973C5 14.5633 4.76191 15.0422 4.28572 15.434C3.82594 15.8113 3.23481 16 2.51232 16Z" fill="white"/>
</svg>
