<svg width="23" height="24" viewBox="0 0 23 24" fill="none" xmlns="http://www.w3.org/2000/svg">
<path d="M5.06207 0.0439474C5.17369 0.0126134 5.2907 0.00649933 5.40617 0.00344235C9.25663 0.00726358 13.1071 0.00497087 16.9568 0.00497087C17.2809 0.0126133 17.6119 -0.0294203 17.9306 0.0454758C18.083 0.812014 18.2955 1.58161 18.7281 2.24421C19.437 3.3837 20.6156 4.22667 21.9373 4.50944C22.2737 4.59962 22.6255 4.57516 22.9665 4.63324C23.0597 6.09295 22.9534 7.56336 22.7109 9.00549C22.209 11.9066 20.9959 14.6762 19.2392 17.0438C18.0915 18.6075 16.6997 19.9892 15.1609 21.1738C14.1663 21.9434 13.1772 22.7184 12.1841 23.4902C11.9563 23.663 11.7469 23.8632 11.4936 24C10.3559 23.157 9.25355 22.2636 8.13121 21.4C6.11745 19.8708 4.34771 18.0114 2.99212 15.8799C1.14387 13.0086 0.0777125 9.63065 0.0253671 6.21829C0.0107412 5.69249 -0.0315969 5.16057 0.0423025 4.63783C0.213965 4.6042 0.389476 4.59656 0.564217 4.58433C2.42402 4.40856 4.11216 3.10246 4.75339 1.36227C4.93044 0.941936 4.97586 0.486446 5.06207 0.0439474ZM7.51461 4.34971C7.39991 4.75323 7.34603 5.18197 7.11586 5.54346C6.57778 6.52705 5.47083 7.10176 4.36465 7.14838C4.28305 8.71202 4.51937 10.2925 5.06669 11.7614C5.82493 13.7897 7.14896 15.5879 8.80169 16.9903C9.44369 17.5253 10.0957 18.0496 10.74 18.5823C10.9802 18.781 11.2111 18.995 11.4859 19.147C11.5275 18.7626 11.5052 18.3751 11.5083 17.9892C11.509 13.7859 11.5083 9.5825 11.509 5.37915C11.5029 5.03447 11.5375 4.68521 11.4721 4.34512C10.1534 4.33595 8.83248 4.32602 7.51461 4.34971Z" fill="url(#paint0_linear_18_1479)"/>
<defs>
<linearGradient id="paint0_linear_18_1479" x1="3.02055" y1="0.0226113" x2="25.9008" y2="16.7229" gradientUnits="userSpaceOnUse">
<stop stop-color="#1f6aed"/>
<stop offset="1" stop-color="#1f6aed"/>
</linearGradient>
</defs>
</svg>
