<svg width="25" height="33" viewBox="0 0 25 33" fill="none" xmlns="http://www.w3.org/2000/svg">
<path fill-rule="evenodd" clip-rule="evenodd" d="M17.318 4.70745C17.5036 3.97381 17.8774 3.3085 18.3981 2.78479C18.9188 2.26108 19.5662 1.89927 20.2691 1.73919C20.972 1.57911 21.703 1.62698 22.3818 1.87752C23.0606 2.12807 23.6607 2.57157 24.1162 3.15919C24.5716 3.74682 24.8647 4.45579 24.9632 5.20803C25.0617 5.96028 24.9617 6.72664 24.6742 7.42272C24.3868 8.11881 23.9231 8.71763 23.3341 9.15326C22.7452 9.58889 22.0538 9.84443 21.3362 9.89175C21.6921 10.9542 21.8733 12.073 21.872 13.2V23.1H23.4343C24.2936 23.1 24.9966 23.8425 24.9966 24.75C24.9966 25.6575 24.2936 26.4 23.4343 26.4H17.1852V28.05C17.1852 29.3628 16.6914 30.6219 15.8124 31.5502C14.9335 32.4785 13.7413 33 12.4983 33C11.2553 33 10.0631 32.4785 9.18419 31.5502C8.30523 30.6219 7.81144 29.3628 7.81144 28.05V26.4H1.56229C0.70303 26.4 0 25.6575 0 24.75C0 23.8425 0.70303 23.1 1.56229 23.1H3.12458V13.2C3.12486 10.8603 3.90945 8.59635 5.33928 6.8093C6.7691 5.02224 8.75182 3.82754 10.936 3.43695V1.65C10.936 1.21239 11.1006 0.792709 11.3936 0.483274C11.6866 0.173839 12.084 0 12.4983 0C12.9126 0 13.31 0.173839 13.603 0.483274C13.896 0.792709 14.0606 1.21239 14.0606 1.65V3.43695C15.2122 3.64102 16.3172 4.07201 17.318 4.70745ZM12.4983 29.7C12.9126 29.7 13.31 29.5262 13.603 29.2167C13.896 28.9073 14.0606 28.4876 14.0606 28.05V26.4H10.936V28.05C10.936 28.4876 11.1006 28.9073 11.3936 29.2167C11.6866 29.5262 12.084 29.7 12.4983 29.7ZM6.24915 23.1H18.7475V13.2C18.7475 11.4496 18.0891 9.77083 16.9171 8.53309C15.7452 7.29535 14.1557 6.6 12.4983 6.6C10.8409 6.6 9.25143 7.29535 8.07949 8.53309C6.90754 9.77083 6.24915 11.4496 6.24915 13.2V23.1Z" fill="#517BAD"/>
</svg>
